<svg width="1093" height="250" viewBox="0 0 1093 250" fill="none" xmlns="http://www.w3.org/2000/svg">
<mask id="mask0_560_19973" style="mask-type:alpha" maskUnits="userSpaceOnUse" x="0" y="0" width="1093" height="250">
<rect width="1093" height="250" fill="#F9F9F9"/>
</mask>
<g mask="url(#mask0_560_19973)">
<rect width="1093" height="250" rx="4" fill="#FBCD58"/>
<path d="M1031.54 275.218C1032.92 278.284 1034.36 281.351 1035.87 284.417C1043.23 299.383 1051.88 313.857 1061.71 327.787M1031.54 275.218C1023.29 256.874 1017.33 238.544 1013.54 220.382M1031.54 275.218C1025.02 278.931 1018.58 282.733 1012.23 286.626C995.561 296.842 979.979 307.381 965.496 318.176M1031.54 275.218C1054.66 262.054 1078.81 250.024 1103.72 239.15M1013.54 220.382C1009.6 201.467 1008.02 182.735 1008.69 164.361M1013.54 220.382C995.927 215.891 978.433 210.928 961.124 205.486C948.198 201.422 935.606 197.164 923.357 192.725M1013.54 220.382C1043.35 227.98 1073.51 234.226 1103.72 239.15M1008.69 164.361C981.961 174.785 953.452 184.293 923.357 192.725M1008.69 164.361C1014.11 14.1137 1224.4 80.2278 1008.69 164.361ZM1061.71 327.787C1030.74 323.323 998.581 320.081 965.496 318.176M1061.71 327.787C1064.1 328.132 1066.49 328.484 1068.87 328.844C1310.87 365.411 1156.7 462.451 1061.71 327.787ZM837.629 212.903C831.544 214.08 825.41 215.214 819.229 216.306C793.05 220.928 766.884 224.626 740.881 227.434M837.629 212.903C867.415 207.145 896.04 200.378 923.357 192.725M837.629 212.903C835.647 218.482 833.462 224.072 831.069 229.669C824.996 243.875 817.773 257.698 809.499 271.091M837.629 212.903C843.684 195.858 847.836 178.915 850.176 162.191M923.357 192.725C897.39 183.315 872.965 173.093 850.176 162.191M740.881 227.434C765.115 240.663 788.106 255.24 809.499 271.091M740.881 227.434C739.135 226.481 737.384 225.535 735.626 224.596C550.836 125.926 491.764 254.335 740.881 227.434ZM1103.72 239.15C1344.71 278.435 1306.63 150.559 1103.72 239.15ZM850.176 162.191C643.65 63.3937 872.123 5.34304 850.176 162.191ZM907.276 368.783C924.138 351.473 943.557 334.529 965.496 318.176M907.276 368.783C894.858 351.141 880.046 333.688 862.799 316.612M907.276 368.783C785.206 494.103 999.896 500.359 907.276 368.783ZM965.496 318.176C934.827 316.411 903.362 315.794 871.311 316.418C868.469 316.473 865.631 316.538 862.799 316.612M770.839 322.487C800.714 319.427 831.432 317.437 862.799 316.612M770.839 322.487C785.451 306.198 798.417 289.029 809.499 271.091M770.839 322.487C519.695 348.215 652.082 454.881 770.839 322.487ZM862.799 316.612C861.371 315.199 859.926 313.787 858.465 312.379C843.334 297.796 826.948 284.02 809.499 271.091" stroke="black" stroke-width="0.5"/>
</g>
</svg>
