<svg width="333" height="102" viewBox="0 0 333 102" fill="none" xmlns="http://www.w3.org/2000/svg">
<mask id="mask0_194_14515" style="mask-type:alpha" maskUnits="userSpaceOnUse" x="0" y="0" width="333" height="102">
<rect width="332.581" height="101.143" fill="#F9F9F9"/>
</mask>
<g mask="url(#mask0_194_14515)">
<rect width="332.581" height="101.143" rx="4" fill="#FBCD58"/>
<path d="M313.88 111.345C314.299 112.585 314.738 113.826 315.197 115.066C317.436 121.121 320.07 126.977 323.06 132.613M313.88 111.345C311.369 103.923 309.555 96.5074 308.403 89.1597M313.88 111.345C311.896 112.847 309.937 114.385 308.004 115.96C302.932 120.093 298.191 124.357 293.783 128.725M313.88 111.345C320.915 106.019 328.263 101.152 335.841 96.7527M308.403 89.1597C307.204 81.5072 306.724 73.9288 306.926 66.4953M308.403 89.1597C303.043 87.343 297.72 85.3351 292.453 83.1334C288.52 81.4893 284.689 79.7665 280.961 77.9706M308.403 89.1597C317.473 92.2338 326.65 94.7605 335.841 96.7527M306.926 66.4953C298.794 70.7125 290.119 74.5594 280.961 77.9706M306.926 66.4953C308.575 5.70951 372.562 32.4574 306.926 66.4953ZM323.06 132.613C313.636 130.807 303.851 129.495 293.783 128.725M323.06 132.613C323.788 132.752 324.514 132.895 325.238 133.04C398.873 147.834 351.964 187.094 323.06 132.613ZM254.876 86.1341C253.024 86.6101 251.158 87.069 249.277 87.5106C241.311 89.3807 233.349 90.8767 225.437 92.0127M254.876 86.1341C263.939 83.8043 272.649 81.0669 280.961 77.9706M254.876 86.1341C254.273 88.3912 253.608 90.6527 252.88 92.917C251.032 98.6643 248.834 104.257 246.316 109.675M254.876 86.1341C256.718 79.238 257.982 72.3835 258.694 65.6175M280.961 77.9706C273.06 74.1635 265.628 70.0279 258.694 65.6175M225.437 92.0127C232.811 97.3648 239.807 103.262 246.316 109.675M225.437 92.0127C224.906 91.6272 224.373 91.2446 223.838 90.8648C167.61 50.9457 149.635 102.896 225.437 92.0127ZM335.841 96.7527C409.172 112.646 397.584 60.9113 335.841 96.7527ZM258.694 65.6175C195.852 25.6468 265.372 2.16116 258.694 65.6175ZM276.068 149.198C281.199 142.195 287.108 135.341 293.783 128.725M276.068 149.198C272.29 142.061 267.783 135 262.535 128.092M276.068 149.198C238.924 199.9 304.251 202.43 276.068 149.198ZM293.783 128.725C284.451 128.01 274.877 127.761 265.125 128.013C264.26 128.035 263.397 128.062 262.535 128.092M234.553 130.469C243.643 129.23 252.99 128.425 262.535 128.092M234.553 130.469C238.999 123.878 242.944 116.932 246.316 109.675M234.553 130.469C158.134 140.877 198.417 184.031 234.553 130.469ZM262.535 128.092C262.1 127.52 261.661 126.949 261.216 126.379C256.612 120.479 251.626 114.906 246.316 109.675" stroke="black" stroke-width="0.5"/>
<ellipse cx="12.0537" cy="9.55328" rx="12.0537" ry="9.55328" transform="matrix(-0.9962 0.0870995 -0.146808 -0.989165 209.582 91.1445)" fill="black"/>
</g>
</svg>
