<svg width="333" height="100" viewBox="0 0 333 100" fill="none" xmlns="http://www.w3.org/2000/svg">
<mask id="mask0_194_14649" style="mask-type:alpha" maskUnits="userSpaceOnUse" x="0" y="0" width="333" height="100">
<rect width="332.581" height="100" fill="#F9F9F9"/>
</mask>
<g mask="url(#mask0_194_14649)">
<rect width="332.581" height="100" rx="4" fill="#D0E3EF"/>
<path d="M313.88 110.087C314.299 111.313 314.738 112.54 315.197 113.766C317.436 119.753 320.07 125.542 323.06 131.114M313.88 110.087C311.369 102.749 309.555 95.417 308.403 88.1523M313.88 110.087C311.896 111.572 309.937 113.093 308.004 114.65C302.932 118.736 298.191 122.952 293.783 127.27M313.88 110.087C320.915 104.821 328.263 100.009 335.841 95.6595M308.403 88.1523C307.204 80.5863 306.724 73.0935 306.926 65.744M308.403 88.1523C303.043 86.3561 297.72 84.3709 292.453 82.1941C288.52 80.5686 284.689 78.8653 280.961 77.0897M308.403 88.1523C317.473 91.1917 326.65 93.6899 335.841 95.6595M306.926 65.744C298.794 69.9136 290.119 73.717 280.961 77.0897M306.926 65.744C308.575 5.64507 372.562 32.0907 306.926 65.744ZM323.06 131.114C313.636 129.329 303.851 128.032 293.783 127.27M323.06 131.114C323.788 131.252 324.514 131.393 325.238 131.537C398.873 146.164 351.964 184.98 323.06 131.114ZM254.876 85.1609C253.024 85.6315 251.158 86.0853 249.277 86.5219C241.311 88.3708 233.349 89.8499 225.437 90.9731M254.876 85.1609C263.939 82.8574 272.649 80.151 280.961 77.0897M254.876 85.1609C254.273 87.3925 253.608 89.6284 252.88 91.8672C251.032 97.5496 248.834 103.079 246.316 108.436M254.876 85.1609C256.718 78.3427 257.982 71.5657 258.694 64.8761M280.961 77.0897C273.06 73.3256 265.628 69.2367 258.694 64.8761M225.437 90.9731C232.811 96.2648 239.807 102.096 246.316 108.436M225.437 90.9731C224.906 90.592 224.373 90.2137 223.838 89.8382C167.61 50.3701 149.635 101.733 225.437 90.9731ZM335.841 95.6595C409.172 111.374 397.584 60.2231 335.841 95.6595ZM258.694 64.8761C195.852 25.3571 265.372 2.13681 258.694 64.8761ZM276.068 147.513C281.199 140.589 287.108 133.811 293.783 127.27M276.068 147.513C272.29 140.456 267.783 133.475 262.535 126.645M276.068 147.513C238.924 197.641 304.251 200.143 276.068 147.513ZM293.783 127.27C284.451 126.564 274.877 126.317 265.125 126.567C264.26 126.589 263.397 126.615 262.535 126.645M234.553 128.994C243.643 127.77 252.99 126.974 262.535 126.645M234.553 128.994C238.999 122.479 242.944 115.611 246.316 108.436M234.553 128.994C158.134 139.286 198.417 181.952 234.553 128.994ZM262.535 126.645C262.1 126.079 261.661 125.515 261.216 124.951C256.612 119.118 251.626 113.607 246.316 108.436" stroke="black" stroke-width="0.5"/>
<ellipse cx="12.0527" cy="9.44767" rx="12.0527" ry="9.44767" transform="matrix(-0.996285 0.0861227 -0.148449 -0.98892 209.582 90.1147)" fill="#FFF853"/>
</g>
</svg>
