<?xml version="1.0" standalone="no"?>
<!DOCTYPE svg PUBLIC "-//W3C//DTD SVG 20010904//EN"
 "http://www.w3.org/TR/2001/REC-SVG-20010904/DTD/svg10.dtd">
<svg version="1.0" xmlns="http://www.w3.org/2000/svg"
 width="500.000000pt" height="500.000000pt" viewBox="0 0 500.000000 500.000000"
 preserveAspectRatio="xMidYMid meet">

<g transform="translate(0.000000,500.000000) scale(0.100000,-0.100000)"
fill="#ffffff" stroke="none">
<path d="M1820 3389 c-62 -25 -146 -103 -174 -163 -68 -144 -27 -319 95 -416
130 -103 321 -90 437 29 54 55 77 101 91 177 13 70 1 156 -31 217 -28 55 -100
124 -156 149 -71 31 -191 34 -262 7z"/>
<path d="M2889 3387 c-74 -31 -122 -69 -158 -125 -40 -63 -55 -128 -49 -215 8
-124 75 -222 188 -276 46 -22 69 -26 140 -26 73 0 93 4 141 28 66 32 132 99
162 165 17 37 22 66 22 137 0 78 -4 97 -28 146 -77 157 -261 230 -418 166z"/>
<path d="M819 3320 c-104 -18 -211 -106 -248 -205 -28 -75 -28 -175 0 -252 53
-141 223 -235 367 -203 77 17 125 43 178 96 67 67 88 121 88 229 1 69 -4 101
-19 135 -45 104 -140 180 -249 199 -33 6 -62 10 -65 10 -3 -1 -27 -5 -52 -9z"/>
<path d="M4011 3319 c-103 -20 -189 -88 -238 -187 -24 -49 -28 -69 -28 -142 0
-74 4 -93 29 -144 76 -155 251 -228 413 -173 146 51 247 232 213 380 -45 187
-211 302 -389 266z"/>
<path d="M1605 2802 c-83 -51 -107 -107 -121 -281 l-6 -84 108 7 c277 17 503
26 657 26 l169 0 -6 38 c-3 20 -8 64 -12 97 -11 100 -49 166 -117 201 -27 14
-30 13 -70 -21 -23 -20 -71 -50 -106 -68 -58 -28 -74 -31 -155 -32 -83 0 -97
3 -156 32 -36 17 -84 48 -107 67 -22 20 -43 36 -45 36 -1 0 -17 -8 -33 -18z"/>
<path d="M2659 2796 c-70 -48 -95 -104 -105 -229 l-7 -94 309 -6 c170 -4 378
-11 463 -17 84 -6 154 -10 156 -8 5 6 -16 195 -26 232 -11 41 -87 131 -120
141 -14 5 -32 -4 -61 -30 -53 -49 -149 -93 -219 -101 -101 -12 -226 31 -299
102 -20 19 -40 34 -46 34 -5 0 -25 -11 -45 -24z"/>
<path d="M528 2705 c-78 -57 -89 -84 -109 -279 -10 -94 -19 -178 -19 -187 0
-14 15 -11 92 18 131 50 348 97 613 135 127 18 232 33 233 34 2 1 -1 42 -7 90
-12 102 -36 146 -103 192 l-43 30 -44 -39 c-23 -21 -68 -51 -100 -66 -50 -25
-66 -28 -161 -28 -94 0 -111 3 -161 28 -31 15 -76 45 -101 66 l-44 39 -46 -33z"/>
<path d="M3728 2711 c-66 -42 -96 -99 -106 -200 -4 -44 -7 -81 -6 -81 15 0
341 -44 409 -56 150 -25 325 -64 423 -96 52 -16 96 -27 99 -24 9 9 -29 320
-43 356 -17 41 -56 85 -98 111 l-30 18 -44 -40 c-95 -88 -235 -120 -368 -84
-61 16 -138 64 -174 108 -14 17 -17 17 -62 -12z"/>
<path d="M2120 2414 c-184 -6 -622 -34 -780 -50 -560 -57 -986 -177 -1067
-300 -80 -122 87 -240 468 -328 442 -102 920 -141 1754 -141 567 0 773 8 1120
41 683 66 1130 209 1130 363 0 50 -25 85 -91 127 -207 132 -682 224 -1389 269
-233 15 -913 26 -1145 19z"/>
</g>
</svg>
