<svg width="24" height="24" viewBox="0 0 24 24" fill="none" xmlns="http://www.w3.org/2000/svg">
<path d="M12 3C8.6863 3 6.00001 5.77104 6.00001 9.1893C6.00001 11.1318 6.86749 12.8653 8.22462 14H15.7754C15.945 13.8582 16.107 13.707 16.2606 13.5472C17.3358 12.4287 18 10.889 18 9.1893C18 5.77104 15.3137 3 12 3Z" fill="#FFF853"/>
<path d="M5 14L19 14M6.00001 9.1893C6.00001 5.77104 8.6863 3 12 3C15.3137 3 18 5.77104 18 9.1893C18 10.889 17.3358 12.4287 16.2606 13.5472C16.107 13.707 15.945 13.8582 15.7754 14H8.22462C6.86749 12.8653 6.00001 11.1318 6.00001 9.1893Z" stroke="black" stroke-width="1.7"/>
<path d="M6 17.5H18" stroke="black" stroke-width="1.7"/>
<path d="M3 21H21.0456" stroke="black" stroke-width="1.7"/>
</svg>
