<svg width="20" height="20" viewBox="0 0 20 20" fill="none" xmlns="http://www.w3.org/2000/svg">
<circle cx="10" cy="10" r="8.15" stroke="black" stroke-width="1.7"/>
<path d="M11.8478 7.23463L12.6331 6.90935L12.6331 6.90935L11.8478 7.23463ZM10.7654 6.15224L11.0906 5.36694V5.36694L10.7654 6.15224ZM8.15224 7.23463L7.36694 6.90935V6.90935L8.15224 7.23463ZM9.23463 6.15224L8.90935 5.36694L8.90935 5.36694L9.23463 6.15224ZM10 11L9.39896 10.399L9.15 10.6479V11H10ZM12.85 8C12.85 7.62573 12.7763 7.25513 12.6331 6.90935L11.0625 7.55991C11.1203 7.69944 11.15 7.84898 11.15 8H12.85ZM12.6331 6.90935C12.4898 6.56357 12.2799 6.24939 12.0153 5.98475L10.8132 7.18683C10.92 7.29361 11.0047 7.42039 11.0625 7.55991L12.6331 6.90935ZM12.0153 5.98475C11.7506 5.7201 11.4364 5.51017 11.0906 5.36694L10.4401 6.93754C10.5796 6.99533 10.7064 7.08004 10.8132 7.18683L12.0153 5.98475ZM11.0906 5.36694C10.7449 5.22372 10.3743 5.15 10 5.15V6.85C10.151 6.85 10.3006 6.87975 10.4401 6.93754L11.0906 5.36694ZM8.85 8C8.85 7.84898 8.87975 7.69944 8.93754 7.55991L7.36694 6.90935C7.22372 7.25513 7.15 7.62573 7.15 8H8.85ZM8.93754 7.55991C8.99533 7.42039 9.08004 7.29361 9.18683 7.18683L7.98475 5.98475C7.7201 6.24939 7.51017 6.56357 7.36694 6.90935L8.93754 7.55991ZM9.18683 7.18683C9.29361 7.08004 9.42039 6.99533 9.55991 6.93754L8.90935 5.36694C8.56357 5.51017 8.24939 5.7201 7.98475 5.98475L9.18683 7.18683ZM9.55991 6.93754C9.69944 6.87975 9.84898 6.85 10 6.85V5.15C9.62573 5.15 9.25513 5.22372 8.90935 5.36694L9.55991 6.93754ZM10.6919 9.10607L9.39896 10.399L10.601 11.601L11.8939 10.3081L10.6919 9.10607ZM9.15 11V12.5H10.85V11H9.15ZM11.15 8C11.15 8.41486 10.9852 8.81272 10.6919 9.10607L11.8939 10.3081C12.5061 9.69599 12.85 8.86572 12.85 8H11.15Z" fill="black"/>
<path d="M9.15 13.5V15H10.85V13.5H9.15Z" fill="black"/>
</svg>
