<svg width="30" height="29" viewBox="0 0 30 29" fill="none" xmlns="http://www.w3.org/2000/svg">
<path d="M15.0508 28.5079C22.9231 28.5079 29.3048 22.1262 29.3048 14.2539C29.3048 6.38171 22.9231 0 15.0508 0C7.17859 0 0.796875 6.38171 0.796875 14.2539C0.796875 22.1262 7.17859 28.5079 15.0508 28.5079Z" fill="black"/>
<path d="M22.8741 5.82812C23.2775 5.82812 23.5764 6.11983 23.5764 6.53038C23.5764 6.94093 23.2775 7.23263 22.8741 7.23263C22.4636 7.23263 22.1719 6.94093 22.1719 6.53038C22.1719 6.11983 22.4636 5.82812 22.8741 5.82812Z" fill="white"/>
<path d="M7.28429 21.418C7.68763 21.418 7.98654 21.7097 7.98654 22.1202C7.98654 22.5308 7.68763 22.8225 7.28429 22.8225C6.87374 22.8225 6.58203 22.5308 6.58203 22.1202C6.58203 21.7097 6.87374 21.418 7.28429 21.418Z" fill="white"/>
<path d="M23.5764 22.1202C23.5764 22.5236 23.2847 22.8225 22.8741 22.8225C22.4636 22.8225 22.1719 22.5236 22.1719 22.1202C22.1719 21.7097 22.4636 21.418 22.8741 21.418C23.2883 21.418 23.5764 21.7097 23.5764 22.1202Z" fill="white"/>
<path d="M7.98654 6.53038C7.98654 6.93372 7.69483 7.23263 7.28429 7.23263C6.87374 7.23263 6.58203 6.93372 6.58203 6.53038C6.58203 6.11983 6.87374 5.82812 7.28429 5.82812C7.69483 5.82812 7.98654 6.11983 7.98654 6.53038Z" fill="white"/>
<path d="M21.4912 8.11483C21.43 8.08242 21.3796 8.032 21.3472 7.96717C20.6917 6.62749 19.5897 5.52549 18.2068 4.85205C16.4494 3.99134 14.4759 3.8833 12.65 4.54594C10.943 5.16536 9.5421 6.3898 8.76782 7.92756C8.73541 7.98878 8.68499 8.0392 8.62377 8.07161C7.74505 8.51097 6.97437 9.1448 6.34054 9.95869C4.34182 12.5156 4.34542 16.1565 6.34775 18.7099C6.98518 19.5273 7.76306 20.1612 8.64898 20.6005C8.7102 20.6329 8.76422 20.6834 8.79303 20.7446C9.64654 22.4588 11.2095 23.7337 13.1182 24.2703C13.7628 24.4503 14.4147 24.5368 15.0557 24.5368C17.6774 24.5368 20.1479 23.0998 21.3184 20.7518C21.3508 20.687 21.4048 20.6365 21.4696 20.6041C23.1946 19.7794 24.4407 18.2525 24.9953 16.2682C26.0793 12.386 24.0517 9.4185 21.4912 8.11483ZM15.5311 5.39224C15.5311 5.21938 15.6715 5.10054 15.8408 5.12215C16.507 5.20858 17.1625 5.40305 17.7891 5.70916C18.4373 6.02607 19.0135 6.44743 19.4961 6.95521C19.7842 7.25412 19.6834 7.47019 19.2728 7.41618C18.0808 7.26492 16.9428 7.4774 15.992 8.032C15.9092 8.07881 15.8084 8.08962 15.7219 8.0464C15.7147 8.0428 15.7111 8.0428 15.7039 8.0392C15.6031 7.99238 15.5347 7.89155 15.5347 7.77631V5.39224H15.5311ZM18.4121 14.824C18.4121 15.0401 18.3293 15.249 18.1744 15.4039L16.1361 17.4422C15.9848 17.5935 15.776 17.6799 15.5635 17.6799H14.5551C14.339 17.6799 14.1338 17.5935 13.9825 17.4422L11.9478 15.4075C11.7965 15.2562 11.7101 15.0473 11.7101 14.8349V14.3235V13.8121C11.7101 13.596 11.7965 13.3907 11.9478 13.2395L13.9753 11.2119C14.1266 11.0607 14.3354 10.9743 14.5479 10.9743H15.0557L15.5635 10.9707C15.7796 10.9707 15.9884 11.0535 16.1433 11.2083L18.178 13.2431C18.3329 13.3979 18.4157 13.6068 18.4157 13.8229L18.4121 14.3235V14.824ZM14.6668 8.96113C15.2754 8.55779 15.9308 9.21322 15.5275 9.82184C15.5059 9.85426 15.477 9.88307 15.4446 9.90467C14.836 10.308 14.1806 9.65258 14.5839 9.04396C14.6055 9.01155 14.6343 8.98274 14.6668 8.96113ZM12.9741 5.44266C13.3991 5.28781 13.8312 5.18337 14.267 5.12575C14.4363 5.10414 14.5767 5.22298 14.5767 5.39585V7.78351C14.5767 7.88074 14.5047 7.99238 14.4147 8.032C14.3858 8.0464 14.357 8.06081 14.3282 8.07521C14.2562 8.11483 14.141 8.11123 14.0689 8.07161C13.2694 7.62865 12.3511 7.39817 11.4076 7.39817C11.2167 7.39817 11.0222 7.40897 10.8278 7.42698C10.4244 7.46659 10.3272 7.25772 10.6081 6.96601C11.2527 6.29977 12.063 5.77038 12.9741 5.44266ZM7.36331 10.2216C7.46415 10.1063 7.57219 9.99831 7.68023 9.89387C7.97193 9.61297 8.17721 9.7066 8.14119 10.1099C8.08717 10.7114 8.13039 11.3236 8.26364 11.9286C8.37888 12.44 8.55894 12.9154 8.80023 13.3475C8.83985 13.4195 8.84345 13.5348 8.80383 13.6068C8.78943 13.632 8.77862 13.6572 8.76422 13.6824C8.7246 13.7725 8.61296 13.8445 8.51573 13.8445H6.13167C5.95881 13.8445 5.83996 13.704 5.86157 13.5348C6.01643 12.332 6.51341 11.1687 7.36331 10.2216ZM8.80023 15.3066C8.55894 15.7424 8.37528 16.2214 8.26364 16.7327C8.13039 17.3342 8.09078 17.9464 8.152 18.5622C8.19161 18.9691 7.98634 19.0628 7.69103 18.7819C7.57939 18.6738 7.46775 18.5622 7.36331 18.4434C6.51341 17.4962 6.01282 16.3258 5.86517 15.1158C5.84356 14.9465 5.96601 14.806 6.13527 14.806H8.51573C8.61296 14.806 8.7246 14.8745 8.76422 14.9609C8.77862 14.9897 8.79303 15.0185 8.80743 15.0473C8.84345 15.1158 8.84345 15.2346 8.80023 15.3066ZM9.57451 8.69464C10.8674 8.20486 12.2359 8.24808 13.3631 8.78107C13.4963 8.84589 13.5756 8.98994 13.5467 9.134C13.5287 9.23123 13.5179 9.32847 13.5179 9.4329C13.5179 9.61657 13.5503 9.79303 13.6116 9.95509C13.6548 10.0739 13.6332 10.2072 13.5431 10.2972L11.0366 12.8037C10.9466 12.8938 10.8134 12.919 10.6945 12.8721C10.5325 12.8145 10.356 12.7821 10.1723 12.7821C10.0679 12.7821 9.96345 12.7929 9.86622 12.8145C9.72216 12.8433 9.57451 12.7677 9.51329 12.6345C9.38004 12.35 9.272 12.0438 9.19998 11.7197C8.9875 10.7654 9.05232 9.79303 9.39445 8.8819C9.41966 8.79547 9.48808 8.72705 9.57451 8.69464ZM10.6369 13.9345C11.0402 14.5431 10.3848 15.1986 9.77618 14.7952C9.74377 14.7736 9.71496 14.7448 9.69335 14.7124C9.29001 14.1038 9.94545 13.4484 10.5541 13.8517C10.5865 13.8733 10.6153 13.9021 10.6369 13.9345ZM9.59972 19.9739C9.51329 19.9415 9.44126 19.8731 9.40885 19.7866C9.05953 18.8503 8.9839 17.8744 9.19277 16.9416C9.2648 16.6139 9.37284 16.3042 9.50969 16.0161C9.57451 15.8828 9.71856 15.8072 9.86262 15.836C9.95985 15.8576 10.0607 15.8684 10.1651 15.8684C10.3488 15.8684 10.5253 15.836 10.6873 15.7748C10.8062 15.7316 10.9394 15.7532 11.0294 15.8432L13.5359 18.3497C13.626 18.4398 13.6512 18.5766 13.6044 18.6954C13.5431 18.8611 13.5107 19.0376 13.5107 19.2212C13.5107 19.3221 13.5215 19.4229 13.5395 19.5201C13.5684 19.6642 13.4927 19.8119 13.3559 19.8767C12.2431 20.4061 10.8854 20.4529 9.59972 19.9739ZM14.5803 23.2619C14.5803 23.4348 14.4399 23.5536 14.2706 23.532C13.9717 23.4924 13.6728 23.4348 13.3775 23.3519C12.2935 23.0494 11.3391 22.4696 10.6045 21.6917C10.32 21.3928 10.4208 21.1948 10.8314 21.2344C11.9766 21.346 13.1074 21.1227 14.0689 20.5897C14.141 20.5501 14.2598 20.5501 14.3354 20.5861C14.3642 20.6005 14.3931 20.6149 14.4219 20.6293C14.5083 20.669 14.5767 20.7806 14.5767 20.8778L14.5803 23.2619ZM15.4482 19.6894C14.8396 20.0928 14.1842 19.4373 14.5875 18.8287C14.6091 18.7963 14.6379 18.7675 14.6704 18.7459C15.279 18.3425 15.9344 18.998 15.5311 19.6066C15.5095 19.639 15.4806 19.6678 15.4482 19.6894ZM15.5311 23.2619V20.8706C15.5311 20.777 15.5995 20.6654 15.6859 20.6257C15.7111 20.6149 15.7363 20.6041 15.7579 20.5897C15.8264 20.5537 15.938 20.5609 16.0028 20.5969C16.9644 21.1155 18.1204 21.328 19.298 21.2128C19.705 21.1731 19.8058 21.3712 19.5285 21.6701C18.5706 22.6965 17.2525 23.3555 15.8336 23.532C15.6715 23.5536 15.5311 23.4312 15.5311 23.2619ZM20.7097 19.7758C20.6773 19.8659 20.6053 19.9343 20.5153 19.9667C19.2332 20.4169 17.8611 20.3701 16.7555 19.8875C16.6151 19.8263 16.5358 19.675 16.5646 19.5273C16.5862 19.4301 16.597 19.3257 16.597 19.2212C16.597 19.0376 16.5646 18.8611 16.5034 18.6954C16.4602 18.5766 16.4818 18.4398 16.5718 18.3497L19.0819 15.8396C19.172 15.7496 19.3052 15.7244 19.4241 15.7712C19.5861 15.8288 19.7626 15.8648 19.9463 15.8648C20.0471 15.8648 20.1479 15.854 20.2416 15.836C20.3856 15.8072 20.5333 15.8828 20.5945 16.0161C21.1239 17.1253 21.1851 18.4866 20.7097 19.7758ZM19.4781 14.716C19.0747 14.1074 19.7302 13.452 20.3388 13.8553C20.3712 13.8769 20.4 13.9057 20.4216 13.9381C20.825 14.5468 20.1695 15.2022 19.5609 14.7988C19.5285 14.7772 19.4997 14.7484 19.4781 14.716ZM20.6017 12.6309C20.5405 12.7641 20.3928 12.8433 20.2488 12.8109C20.1515 12.7929 20.0507 12.7821 19.9499 12.7821C19.7662 12.7821 19.5897 12.8145 19.4277 12.8757C19.3088 12.919 19.1756 12.8974 19.0855 12.8073L16.5754 10.2972C16.4854 10.2072 16.4638 10.0739 16.507 9.95509C16.5646 9.79303 16.597 9.61657 16.597 9.4329C16.597 9.31046 16.5826 9.19522 16.5574 9.07998C16.5214 8.93592 16.6006 8.78467 16.7375 8.71985C17.8287 8.20126 19.1792 8.18685 20.5333 8.72705C20.6197 8.75946 20.6845 8.83149 20.7169 8.91432C20.8214 9.20242 20.9042 9.49413 20.9546 9.78583C21.1347 10.787 20.9978 11.7846 20.6017 12.6309ZM24.0769 16.0089C23.76 17.1397 23.1874 18.0976 22.4095 18.8215C22.1106 19.1024 21.9126 18.998 21.9522 18.591C22.071 17.4278 21.8441 16.279 21.3075 15.3102C21.2679 15.2382 21.2679 15.1194 21.3075 15.0437C21.322 15.0149 21.3364 14.9825 21.3508 14.9537C21.3904 14.8673 21.5056 14.7988 21.5993 14.7988H23.9941C24.167 14.7988 24.2894 14.9393 24.2642 15.1122C24.2246 15.4039 24.1634 15.7028 24.0769 16.0089ZM21.5993 13.8481C21.502 13.8481 21.3904 13.7761 21.3508 13.686C21.3364 13.6572 21.322 13.6284 21.3075 13.5996C21.2679 13.5276 21.2715 13.4123 21.3112 13.3403C21.9234 12.2311 22.0458 11.0751 21.9594 10.128C21.9378 9.87946 22.2295 9.73181 22.4131 9.89747C23.3999 10.7942 24.1346 12.0402 24.3002 13.542C24.3182 13.7112 24.1958 13.8481 24.0301 13.8481H21.5993Z" fill="white"/>
</svg>
