<svg width="96" height="26" viewBox="0 0 96 26" fill="none" xmlns="http://www.w3.org/2000/svg">
<path d="M7.7663 0.787109H12.1841L19.2092 19.9966H15.3122L13.5016 14.7269H6.44888L4.66588 19.9966H0.851562L7.7663 0.787109ZM12.4049 11.5472L9.93556 4.32897L7.52144 11.5472H12.4049Z" fill="black"/>
<path d="M19.8125 0.787109H23.2716V19.9966H19.8125V0.787109Z" fill="black"/>
<path d="M25.4648 0.787109H28.9239V19.9966H25.4648V0.787109ZM32.9831 5.97402H36.6043L32.6555 12.2335L37.0733 20.0001H33.1762L28.9239 12.5094L32.9831 5.97402Z" fill="black"/>
<path d="M39.4339 0.542969C40.6134 0.542969 41.4928 1.39481 41.4928 2.60187C41.4928 3.80893 40.6134 4.66077 39.4339 4.66077C38.2268 4.66077 37.375 3.80893 37.375 2.60187C37.375 1.39481 38.2268 0.542969 39.4339 0.542969ZM37.7061 5.97474H41.1652V19.9973H37.7061V5.97474Z" fill="black"/>
<path d="M59.0266 8.83017C57.5436 8.83017 55.9261 9.87169 55.9261 12.2065V20.0007H52.4671V12.2065C52.4671 9.87514 51.4255 8.83017 49.8874 8.83017C48.4044 8.83017 46.8146 9.87169 46.8146 12.2065V20.0007H43.3555V5.97461H46.8146V7.84038C47.9113 6.30224 49.5322 5.5918 51.0393 5.5918C52.9878 5.5918 54.4708 6.49882 55.2916 8.17146C56.3883 6.44364 58.2265 5.5918 60.175 5.5918C63.1099 5.5918 65.0584 7.6507 65.0584 11.4374V20.0007H61.5993V12.2065C61.6062 9.87169 60.5371 8.83017 59.0266 8.83017Z" fill="black"/>
<path d="M68.6566 0.542969C69.836 0.542969 70.7155 1.39481 70.7155 2.60187C70.7155 3.80893 69.836 4.66077 68.6566 4.66077C67.4495 4.66077 66.5977 3.80893 66.5977 2.60187C66.5977 1.39481 67.4495 0.542969 68.6566 0.542969ZM66.9287 5.97474H70.3878V19.9973H66.9287V5.97474Z" fill="black"/>
<path d="M76.5067 18.7074L70.9922 5.97461H74.7789L78.3449 14.4275L81.7212 5.97461H85.3148L77.4655 25.2117H73.8719L76.5067 18.7074Z" fill="black"/>
<path d="M84.1367 16.2105C84.1367 13.8791 85.5093 12.5893 88.2787 11.8478L92.3413 10.7787V10.2855C92.3413 9.4337 91.5998 8.83017 90.3927 8.83017C89.3236 8.83017 88.3063 9.24057 88.0062 10.5304H84.2747C84.7678 7.34721 87.1302 5.5918 90.3927 5.5918C93.7967 5.5918 95.8004 7.45757 95.8004 10.2855V20.0007H92.3413V18.7384C91.4343 19.8627 90.0099 20.3835 88.5546 20.3835C85.9749 20.3835 84.1367 18.9005 84.1367 16.2105ZM89.3512 17.4451C90.9687 17.4451 92.3413 16.4036 92.3413 14.8655V13.5756L88.9926 14.4551C88.0338 14.731 87.5924 15.2241 87.5924 15.938C87.5924 16.952 88.3063 17.4451 89.3512 17.4451Z" fill="black"/>
</svg>
