<svg width="20" height="20" viewBox="0 0 20 20" fill="none" xmlns="http://www.w3.org/2000/svg">
<circle cx="10" cy="10" r="8.15" fill="#FFF853" stroke="black" stroke-width="1.7"/>
<mask id="path-2-inside-1_16983_866" fill="white">
<path d="M10 1C11.4801 1 12.9373 1.36501 14.2426 2.06271C15.5479 2.7604 16.6609 3.76924 17.4832 4.99986C18.3055 6.23049 18.8116 7.64491 18.9567 9.11784C19.1017 10.5908 18.8813 12.0767 18.3149 13.4441L10 10L10 1Z"/>
</mask>
<path d="M10 1C11.4801 1 12.9373 1.36501 14.2426 2.06271C15.5479 2.7604 16.6609 3.76924 17.4832 4.99986C18.3055 6.23049 18.8116 7.64491 18.9567 9.11784C19.1017 10.5908 18.8813 12.0767 18.3149 13.4441L10 10L10 1Z" fill="#FFF853" stroke="black" stroke-width="3.4" mask="url(#path-2-inside-1_16983_866)"/>
</svg>
