<svg width="20" height="20" viewBox="0 0 20 20" fill="none" xmlns="http://www.w3.org/2000/svg">
<path d="M2 3L2 18L18 18" stroke="black" stroke-width="1.7"/>
<path d="M8.88 4.49998L6 7.99998V14H16.8481V2.41809L12.72 7.49998L8.88 4.49998Z" fill="#FFF853"/>
<path d="M6 7.99998L5.34364 7.45989L5.15 7.69522V7.99998H6ZM8.88 4.49998L9.4033 3.83016L8.75023 3.31995L8.22364 3.95989L8.88 4.49998ZM12.72 7.49998L12.1967 8.1698L12.8539 8.68325L13.3798 8.03591L12.72 7.49998ZM16.8481 2.41809H17.6981L16.1883 1.88216L16.8481 2.41809ZM6 14H5.15V14.85H6V14ZM16.8481 14V14.85H17.6981V14H16.8481ZM6.65636 8.54007L9.53636 5.04007L8.22364 3.95989L5.34364 7.45989L6.65636 8.54007ZM8.3567 5.1698L12.1967 8.1698L13.2433 6.83016L9.4033 3.83016L8.3567 5.1698ZM13.3798 8.03591L17.5078 2.95402L16.1883 1.88216L12.0602 6.96405L13.3798 8.03591ZM5.15 7.99998V14H6.85V7.99998H5.15ZM6 14.85H16.8481V13.15H6V14.85ZM17.6981 14V2.41809H15.9981V14H17.6981Z" fill="black"/>
</svg>
