<?xml version="1.0" standalone="no"?>
<!DOCTYPE svg PUBLIC "-//W3C//DTD SVG 20010904//EN"
 "http://www.w3.org/TR/2001/REC-SVG-20010904/DTD/svg10.dtd">
<svg version="1.0" xmlns="http://www.w3.org/2000/svg"
 width="1006.000000pt" height="966.000000pt" viewBox="0 0 1006.000000 966.000000"
 preserveAspectRatio="xMidYMid meet">

<g transform="translate(0.000000,966.000000) scale(0.100000,-0.100000)"
fill="#000000" stroke="none">
<path d="M4913 8940 c-95 -28 -162 -68 -235 -141 -215 -216 -212 -549 6 -764
41 -40 94 -81 126 -97 280 -135 601 -28 735 245 102 209 62 450 -103 616 -75
74 -141 113 -240 142 -85 24 -205 24 -289 -1z"/>
<path d="M4290 8257 c-158 -84 -185 -102 -264 -177 -68 -64 -124 -143 -166
-233 -52 -113 -59 -150 -95 -537 -8 -91 -22 -232 -30 -315 -29 -298 -30 -356
-8 -406 23 -51 24 -52 288 -251 110 -83 290 -220 400 -303 221 -168 224 -170
277 -179 99 -18 215 61 237 161 8 42 7 62 -5 105 -19 63 -44 88 -239 243 -76
61 -157 126 -180 145 -23 19 -110 91 -194 159 -83 68 -154 128 -157 132 -5 8
260 596 276 612 12 13 612 267 630 267 18 0 618 -254 630 -267 16 -16 281
-604 276 -612 -3 -4 -74 -64 -157 -132 -84 -68 -171 -140 -194 -159 -23 -19
-104 -84 -180 -145 -198 -156 -229 -190 -242 -254 -16 -81 0 -135 56 -191 83
-83 196 -89 286 -16 40 33 189 146 570 434 264 199 265 200 288 251 22 50 21
107 -8 401 -8 80 -21 224 -30 320 -37 400 -51 465 -129 603 -45 82 -138 184
-221 242 -33 23 -118 73 -189 110 -131 69 -145 72 -146 24 0 -38 -47 -148 -92
-215 -93 -139 -235 -235 -400 -268 -97 -20 -139 -20 -236 0 -253 52 -439 238
-496 497 -4 15 -10 27 -14 27 -4 0 -68 -33 -142 -73z"/>
<path d="M4870 7374 c-83 -7 -265 -36 -334 -53 l-68 -17 -110 -238 c-60 -132
-105 -242 -101 -246 41 -36 572 -466 618 -501 163 -122 189 -314 62 -456 -58
-64 -117 -88 -217 -88 -72 0 -91 4 -127 25 -43 26 -808 603 -876 661 -78 66
-103 155 -86 300 16 142 16 142 -61 78 -143 -118 -356 -349 -330 -357 7 -3 60
1 119 7 88 9 115 9 160 -3 61 -17 119 -52 150 -93 118 -151 639 -846 655 -873
32 -54 30 -188 -4 -253 -71 -139 -244 -201 -385 -138 -59 26 -84 48 -138 121
-31 42 -459 570 -497 613 -4 4 -114 -41 -246 -101 l-238 -110 -17 -68 c-42
-171 -53 -283 -53 -524 0 -241 11 -353 53 -524 l17 -68 238 -110 c132 -60 242
-105 246 -101 36 41 466 572 501 618 24 33 66 74 92 92 145 97 342 46 425
-111 23 -44 27 -63 27 -136 0 -68 -4 -92 -21 -120 -11 -19 -151 -207 -310
-417 -159 -210 -305 -403 -324 -429 -45 -61 -101 -101 -170 -119 -46 -13 -73
-13 -161 -4 -59 6 -112 10 -119 7 -25 -8 193 -244 330 -358 77 -63 77 -63 61
79 -17 145 8 234 86 300 60 52 844 642 883 665 54 32 188 30 253 -4 119 -61
184 -194 157 -323 -15 -74 -61 -141 -135 -196 -47 -36 -584 -470 -618 -501 -4
-4 41 -114 101 -246 l110 -238 68 -17 c171 -42 283 -53 524 -53 241 0 353 11
524 53 l68 17 110 238 c60 132 105 242 101 246 -34 31 -571 465 -618 501 -74
55 -120 122 -135 195 -27 129 38 264 157 324 66 34 200 36 253 4 39 -23 822
-613 883 -665 78 -66 103 -155 86 -300 -16 -142 -16 -142 61 -78 143 118 356
349 330 357 -7 3 -60 -1 -119 -7 -88 -9 -115 -9 -160 3 -61 17 -119 52 -150
93 -138 177 -632 834 -651 866 -21 36 -25 54 -25 127 1 72 5 93 27 136 31 59
84 108 147 138 64 29 168 28 236 -3 59 -26 84 -48 138 -121 31 -42 459 -570
497 -613 4 -4 114 41 246 101 l238 110 17 68 c41 170 53 284 53 524 0 241 -11
351 -53 524 l-17 68 -119 55 c-66 30 -140 63 -165 75 -157 73 -194 88 -200 81
-36 -41 -466 -572 -501 -618 -55 -74 -122 -120 -196 -135 -131 -28 -257 34
-321 155 -22 42 -26 63 -27 135 0 69 4 92 21 120 16 27 545 732 655 873 31 41
89 76 150 93 45 12 72 12 160 3 59 -6 112 -10 119 -7 25 8 -190 241 -330 357
-77 64 -77 64 -61 -78 17 -145 -8 -234 -86 -300 -60 -52 -844 -642 -883 -665
-54 -32 -188 -30 -253 4 -119 61 -184 194 -157 323 15 74 61 141 135 196 46
35 578 466 618 501 5 4 -41 115 -101 246 l-110 239 -53 13 c-154 37 -291 53
-484 56 -110 2 -220 2 -245 0z"/>
<path d="M3340 6403 c-19 -1 -111 -10 -205 -18 -546 -50 -675 -64 -742 -80
-155 -39 -330 -162 -427 -299 -46 -66 -180 -315 -173 -322 2 -2 31 -11 63 -20
126 -32 255 -116 335 -216 49 -61 101 -169 120 -248 17 -71 17 -209 0 -280
-55 -226 -233 -406 -457 -465 -31 -8 -59 -17 -62 -19 -7 -8 126 -255 173 -321
59 -83 160 -176 242 -221 136 -77 220 -95 603 -129 96 -9 240 -22 320 -30 292
-29 351 -30 401 -8 52 23 50 21 267 308 91 121 230 305 309 409 160 212 172
238 153 325 -10 43 -22 64 -59 101 -57 57 -111 73 -192 57 -64 -13 -97 -44
-254 -241 -181 -229 -436 -536 -443 -536 -4 1 -142 63 -307 139 l-300 137
-132 310 c-73 170 -133 316 -133 324 0 8 60 154 133 324 l132 310 300 137
c165 76 303 138 307 139 7 0 250 -294 443 -535 156 -195 189 -228 250 -242 79
-18 138 -1 196 57 38 38 49 58 59 103 19 85 5 115 -171 347 -86 113 -223 295
-306 405 -84 110 -164 215 -180 234 -51 62 -117 78 -263 64z"/>
<path d="M6585 6392 c-47 -22 -48 -23 -263 -307 -91 -121 -230 -305 -309 -409
-160 -212 -172 -238 -153 -325 10 -43 22 -64 59 -101 57 -57 111 -73 192 -57
64 13 95 42 254 242 193 242 436 535 443 535 4 -1 142 -63 307 -139 l300 -137
133 -310 c72 -170 132 -316 132 -324 0 -8 -60 -154 -132 -324 l-133 -310 -300
-137 c-165 -76 -303 -138 -307 -139 -7 0 -244 286 -443 535 -158 197 -181 220
-243 239 -81 24 -141 8 -203 -54 -84 -84 -88 -187 -12 -287 72 -93 282 -371
431 -568 199 -264 200 -265 251 -288 50 -22 107 -21 406 8 208 21 458 44 535
51 162 13 268 43 383 108 82 45 183 138 242 221 47 66 180 313 173 321 -3 2
-31 11 -62 19 -224 59 -402 239 -457 465 -17 71 -17 209 0 280 55 226 233 406
457 465 31 8 59 17 62 19 7 8 -126 255 -174 322 -68 97 -171 185 -276 238
-138 68 -159 73 -568 111 -91 8 -232 22 -315 30 -278 27 -365 29 -410 7z"/>
<path d="M1588 5590 c-84 -14 -193 -75 -266 -148 -141 -141 -195 -340 -143
-524 29 -99 68 -165 142 -240 217 -216 566 -211 772 12 35 37 74 92 89 121
133 273 29 595 -234 728 -117 58 -225 74 -360 51z"/>
<path d="M8300 5589 c-25 -5 -79 -25 -120 -46 -186 -91 -300 -275 -300 -483 0
-300 240 -540 540 -540 243 0 460 167 521 402 50 193 -1 378 -142 520 -131
130 -311 184 -499 147z"/>
<path d="M4656 4255 c-21 -7 -55 -26 -75 -43 -38 -30 -231 -177 -566 -430
-264 -199 -265 -200 -288 -251 -22 -50 -21 -97 8 -406 30 -314 44 -461 50
-530 20 -233 82 -386 208 -521 78 -84 150 -135 311 -219 131 -69 145 -72 146
-24 0 38 47 148 92 215 64 96 144 167 243 214 102 49 169 64 275 64 106 0 173
-15 275 -64 99 -47 179 -118 243 -214 45 -67 92 -177 92 -215 1 -48 15 -45
146 24 71 37 149 82 174 98 103 71 202 183 260 296 55 108 72 202 105 561 9
96 22 240 30 320 29 294 30 351 8 401 -20 46 -39 63 -158 152 -38 29 -146 111
-240 182 -93 71 -235 178 -315 238 -80 60 -154 118 -165 128 -11 10 -42 23
-70 29 -66 15 -131 -1 -183 -45 -65 -56 -84 -118 -68 -214 10 -54 49 -94 240
-246 229 -181 536 -436 536 -443 -1 -4 -63 -142 -139 -307 l-137 -300 -310
-132 c-170 -73 -316 -133 -324 -133 -8 0 -154 59 -323 131 l-309 132 -40 86
c-115 249 -238 519 -238 525 0 5 326 274 535 441 200 159 229 190 242 254 16
81 0 135 -56 191 -65 65 -136 83 -215 55z"/>
<path d="M4892 2214 c-94 -31 -164 -76 -229 -148 -197 -215 -190 -539 15 -745
141 -141 327 -192 518 -142 101 26 169 65 246 142 130 131 182 305 148 490
-23 124 -126 275 -237 346 -131 84 -314 107 -461 57z"/>
</g>
</svg>
